# xmcd CD database file
#
# Track frame offsets:
#	150
#	15397
#	34462
#	51175
#	67725
#	85942
#	105050
#	122082
#	136800
#	154872
#	171302
#	183917
#
# Disc length: 2645 seconds
#
# Revision: 2
# Processed by: cddbd v1.5.2PL0 Copyright (c) Steve Scherf et al.
# Submitted via: CDex 1.51
#
DISCID=8f0a530c
DTITLE=Lee Kernaghan - Three Chain Road
DYEAR=1993
DGENRE=Country
TTITLE0=The Outback Club
TTITLE1=Three Chain Road
TTITLE2=She's My Ute
TTITLE3=Dust On My Boots
TTITLE4=The Burning Heart
TTITLE5='Cause I'm Country
TTITLE6=Collingullie Station
TTITLE7=Leave Him In The Longyard
TTITLE8=Southern Son
TTITLE9=Back To The Shack
TTITLE10=Cobar Line
TTITLE11=Western Stars
EXTD=YEAR: 1993
EXTT0=
EXTT1=
EXTT2=
EXTT3=
EXTT4=
EXTT5=
EXTT6=
EXTT7=
EXTT8=
EXTT9=
EXTT10=
EXTT11=
PLAYORDER=
